ply
format ascii 1.0
element vertex 100
property float x
property float y
property float z
property float f_dc_0
property float f_dc_1
property float f_dc_2
property float opacity
property float scale_0
property float scale_1
property float scale_2
property float rot_0
property float rot_1
property float rot_2
property float rot_3
end_header
0.100 0.050 0.033 0.5 0.5 0.5 1.0 0.1 0.1 0.1 1.0 0.0 0.0 0.0
0.200 0.100 0.066 0.5 0.5 0.5 1.0 0.1 0.1 0.1 1.0 0.0 0.0 0.0
0.300 0.150 0.100 0.5 0.5 0.5 1.0 0.1 0.1 0.1 1.0 0.0 0.0 0.0
0.400 0.200 0.133 0.5 0.5 0.5 1.0 0.1 0.1 0.1 1.0 0.0 0.0 0.0
0.500 0.250 0.166 0.5 0.5 0.5 1.0 0.1 0.1 0.1 1.0 0.0 0.0 0.0
0.600 0.300 0.200 0.5 0.5 0.5 1.0 0.1 0.1 0.1 1.0 0.0 0.0 0.0
0.700 0.350 0.233 0.5 0.5 0.5 1.0 0.1 0.1 0.1 1.0 0.0 0.0 0.0
0.800 0.400 0.266 0.5 0.5 0.5 1.0 0.1 0.1 0.1 1.0 0.0 0.0 0.0
0.900 0.450 0.300 0.5 0.5 0.5 1.0 0.1 0.1 0.1 1.0 0.0 0.0 0.0
1.000 0.500 0.333 0.5 0.5 0.5 1.0 0.1 0.1 0.1 1.0 0.0 0.0 0.0
1.100 0.550 0.366 0.5 0.5 0.5 1.0 0.1 0.1 0.1 1.0 0.0 0.0 0.0
1.200 0.600 0.400 0.5 0.5 0.5 1.0 0.1 0.1 0.1 1.0 0.0 0.0 0.0
1.300 0.650 0.433 0.5 0.5 0.5 1.0 0.1 0.1 0.1 1.0 0.0 0.0 0.0
1.400 0.700 0.466 0.5 0.5 0.5 1.0 0.1 0.1 0.1 1.0 0.0 0.0 0.0
1.500 0.750 0.500 0.5 0.5 0.5 1.0 0.1 0.1 0.1 1.0 0.0 0.0 0.0
1.600 0.800 0.533 0.5 0.5 0.5 1.0 0.1 0.1 0.1 1.0 0.0 0.0 0.0
1.700 0.850 0.566 0.5 0.5 0.5 1.0 0.1 0.1 0.1 1.0 0.0 0.0 0.0
1.800 0.900 0.600 0.5 0.5 0.5 1.0 0.1 0.1 0.1 1.0 0.0 0.0 0.0
1.900 0.950 0.633 0.5 0.5 0.5 1.0 0.1 0.1 0.1 1.0 0.0 0.0 0.0
2.000 1.000 0.666 0.5 0.5 0.5 1.0 0.1 0.1 0.1 1.0 0.0 0.0 0.0
2.100 1.050 0.700 0.5 0.5 0.5 1.0 0.1 0.1 0.1 1.0 0.0 0.0 0.0
2.200 1.100 0.733 0.5 0.5 0.5 1.0 0.1 0.1 0.1 1.0 0.0 0.0 0.0
2.300 1.150 0.766 0.5 0.5 0.5 1.0 0.1 0.1 0.1 1.0 0.0 0.0 0.0
2.400 1.200 0.800 0.5 0.5 0.5 1.0 0.1 0.1 0.1 1.0 0.0 0.0 0.0
2.500 1.250 0.833 0.5 0.5 0.5 1.0 0.1 0.1 0.1 1.0 0.0 0.0 0.0
2.600 1.300 0.866 0.5 0.5 0.5 1.0 0.1 0.1 0.1 1.0 0.0 0.0 0.0
2.700 1.350 0.900 0.5 0.5 0.5 1.0 0.1 0.1 0.1 1.0 0.0 0.0 0.0
2.800 1.400 0.933 0.5 0.5 0.5 1.0 0.1 0.1 0.1 1.0 0.0 0.0 0.0
2.900 1.450 0.966 0.5 0.5 0.5 1.0 0.1 0.1 0.1 1.0 0.0 0.0 0.0
3.000 1.500 1.000 0.5 0.5 0.5 1.0 0.1 0.1 0.1 1.0 0.0 0.0 0.0
3.100 1.550 1.033 0.5 0.5 0.5 1.0 0.1 0.1 0.1 1.0 0.0 0.0 0.0
3.200 1.600 1.066 0.5 0.5 0.5 1.0 0.1 0.1 0.1 1.0 0.0 0.0 0.0
3.300 1.650 1.100 0.5 0.5 0.5 1.0 0.1 0.1 0.1 1.0 0.0 0.0 0.0
3.400 1.700 1.133 0.5 0.5 0.5 1.0 0.1 0.1 0.1 1.0 0.0 0.0 0.0
3.500 1.750 1.166 0.5 0.5 0.5 1.0 0.1 0.1 0.1 1.0 0.0 0.0 0.0
3.600 1.800 1.200 0.5 0.5 0.5 1.0 0.1 0.1 0.1 1.0 0.0 0.0 0.0
3.700 1.850 1.233 0.5 0.5 0.5 1.0 0.1 0.1 0.1 1.0 0.0 0.0 0.0
3.800 1.900 1.266 0.5 0.5 0.5 1.0 0.1 0.1 0.1 1.0 0.0 0.0 0.0
3.900 1.950 1.300 0.5 0.5 0.5 1.0 0.1 0.1 0.1 1.0 0.0 0.0 0.0
4.000 2.000 1.333 0.5 0.5 0.5 1.0 0.1 0.1 0.1 1.0 0.0 0.0 0.0
4.100 2.050 1.366 0.5 0.5 0.5 1.0 0.1 0.1 0.1 1.0 0.0 0.0 0.0
4.200 2.100 1.400 0.5 0.5 0.5 1.0 0.1 0.1 0.1 1.0 0.0 0.0 0.0
4.300 2.150 1.433 0.5 0.5 0.5 1.0 0.1 0.1 0.1 1.0 0.0 0.0 0.0
4.400 2.200 1.466 0.5 0.5 0.5 1.0 0.1 0.1 0.1 1.0 0.0 0.0 0.0
4.500 2.250 1.500 0.5 0.5 0.5 1.0 0.1 0.1 0.1 1.0 0.0 0.0 0.0
4.600 2.300 1.533 0.5 0.5 0.5 1.0 0.1 0.1 0.1 1.0 0.0 0.0 0.0
4.700 2.350 1.566 0.5 0.5 0.5 1.0 0.1 0.1 0.1 1.0 0.0 0.0 0.0
4.800 2.400 1.600 0.5 0.5 0.5 1.0 0.1 0.1 0.1 1.0 0.0 0.0 0.0
4.900 2.450 1.633 0.5 0.5 0.5 1.0 0.1 0.1 0.1 1.0 0.0 0.0 0.0
5.000 2.500 1.666 0.5 0.5 0.5 1.0 0.1 0.1 0.1 1.0 0.0 0.0 0.0
5.100 2.550 1.700 0.5 0.5 0.5 1.0 0.1 0.1 0.1 1.0 0.0 0.0 0.0
5.200 2.600 1.733 0.5 0.5 0.5 1.0 0.1 0.1 0.1 1.0 0.0 0.0 0.0
5.300 2.650 1.766 0.5 0.5 0.5 1.0 0.1 0.1 0.1 1.0 0.0 0.0 0.0
5.400 2.700 1.800 0.5 0.5 0.5 1.0 0.1 0.1 0.1 1.0 0.0 0.0 0.0
5.500 2.750 1.833 0.5 0.5 0.5 1.0 0.1 0.1 0.1 1.0 0.0 0.0 0.0
5.600 2.800 1.866 0.5 0.5 0.5 1.0 0.1 0.1 0.1 1.0 0.0 0.0 0.0
5.700 2.850 1.900 0.5 0.5 0.5 1.0 0.1 0.1 0.1 1.0 0.0 0.0 0.0
5.800 2.900 1.933 0.5 0.5 0.5 1.0 0.1 0.1 0.1 1.0 0.0 0.0 0.0
5.900 2.950 1.966 0.5 0.5 0.5 1.0 0.1 0.1 0.1 1.0 0.0 0.0 0.0
6.000 3.000 2.000 0.5 0.5 0.5 1.0 0.1 0.1 0.1 1.0 0.0 0.0 0.0
6.100 3.050 2.033 0.5 0.5 0.5 1.0 0.1 0.1 0.1 1.0 0.0 0.0 0.0
6.200 3.100 2.066 0.5 0.5 0.5 1.0 0.1 0.1 0.1 1.0 0.0 0.0 0.0
6.300 3.150 2.100 0.5 0.5 0.5 1.0 0.1 0.1 0.1 1.0 0.0 0.0 0.0
6.400 3.200 2.133 0.5 0.5 0.5 1.0 0.1 0.1 0.1 1.0 0.0 0.0 0.0
6.500 3.250 2.166 0.5 0.5 0.5 1.0 0.1 0.1 0.1 1.0 0.0 0.0 0.0
6.600 3.300 2.200 0.5 0.5 0.5 1.0 0.1 0.1 0.1 1.0 0.0 0.0 0.0
6.700 3.350 2.233 0.5 0.5 0.5 1.0 0.1 0.1 0.1 1.0 0.0 0.0 0.0
6.800 3.400 2.266 0.5 0.5 0.5 1.0 0.1 0.1 0.1 1.0 0.0 0.0 0.0
6.900 3.450 2.300 0.5 0.5 0.5 1.0 0.1 0.1 0.1 1.0 0.0 0.0 0.0
7.000 3.500 2.333 0.5 0.5 0.5 1.0 0.1 0.1 0.1 1.0 0.0 0.0 0.0
7.100 3.550 2.366 0.5 0.5 0.5 1.0 0.1 0.1 0.1 1.0 0.0 0.0 0.0
7.200 3.600 2.400 0.5 0.5 0.5 1.0 0.1 0.1 0.1 1.0 0.0 0.0 0.0
7.300 3.650 2.433 0.5 0.5 0.5 1.0 0.1 0.1 0.1 1.0 0.0 0.0 0.0
7.400 3.700 2.466 0.5 0.5 0.5 1.0 0.1 0.1 0.1 1.0 0.0 0.0 0.0
7.500 3.750 2.500 0.5 0.5 0.5 1.0 0.1 0.1 0.1 1.0 0.0 0.0 0.0
7.600 3.800 2.533 0.5 0.5 0.5 1.0 0.1 0.1 0.1 1.0 0.0 0.0 0.0
7.700 3.850 2.566 0.5 0.5 0.5 1.0 0.1 0.1 0.1 1.0 0.0 0.0 0.0
7.800 3.900 2.600 0.5 0.5 0.5 1.0 0.1 0.1 0.1 1.0 0.0 0.0 0.0
7.900 3.950 2.633 0.5 0.5 0.5 1.0 0.1 0.1 0.1 1.0 0.0 0.0 0.0
8.000 4.000 2.666 0.5 0.5 0.5 1.0 0.1 0.1 0.1 1.0 0.0 0.0 0.0
8.100 4.050 2.700 0.5 0.5 0.5 1.0 0.1 0.1 0.1 1.0 0.0 0.0 0.0
8.200 4.100 2.733 0.5 0.5 0.5 1.0 0.1 0.1 0.1 1.0 0.0 0.0 0.0
8.300 4.150 2.766 0.5 0.5 0.5 1.0 0.1 0.1 0.1 1.0 0.0 0.0 0.0
8.400 4.200 2.800 0.5 0.5 0.5 1.0 0.1 0.1 0.1 1.0 0.0 0.0 0.0
8.500 4.250 2.833 0.5 0.5 0.5 1.0 0.1 0.1 0.1 1.0 0.0 0.0 0.0
8.600 4.300 2.866 0.5 0.5 0.5 1.0 0.1 0.1 0.1 1.0 0.0 0.0 0.0
8.700 4.350 2.900 0.5 0.5 0.5 1.0 0.1 0.1 0.1 1.0 0.0 0.0 0.0
8.800 4.400 2.933 0.5 0.5 0.5 1.0 0.1 0.1 0.1 1.0 0.0 0.0 0.0
8.900 4.450 2.966 0.5 0.5 0.5 1.0 0.1 0.1 0.1 1.0 0.0 0.0 0.0
9.000 4.500 3.000 0.5 0.5 0.5 1.0 0.1 0.1 0.1 1.0 0.0 0.0 0.0
9.100 4.550 3.033 0.5 0.5 0.5 1.0 0.1 0.1 0.1 1.0 0.0 0.0 0.0
9.200 4.600 3.066 0.5 0.5 0.5 1.0 0.1 0.1 0.1 1.0 0.0 0.0 0.0
9.300 4.650 3.100 0.5 0.5 0.5 1.0 0.1 0.1 0.1 1.0 0.0 0.0 0.0
9.400 4.700 3.133 0.5 0.5 0.5 1.0 0.1 0.1 0.1 1.0 0.0 0.0 0.0
9.500 4.750 3.166 0.5 0.5 0.5 1.0 0.1 0.1 0.1 1.0 0.0 0.0 0.0
9.600 4.800 3.200 0.5 0.5 0.5 1.0 0.1 0.1 0.1 1.0 0.0 0.0 0.0
9.700 4.850 3.233 0.5 0.5 0.5 1.0 0.1 0.1 0.1 1.0 0.0 0.0 0.0
9.800 4.900 3.266 0.5 0.5 0.5 1.0 0.1 0.1 0.1 1.0 0.0 0.0 0.0
9.900 4.950 3.300 0.5 0.5 0.5 1.0 0.1 0.1 0.1 1.0 0.0 0.0 0.0
10.000 5.000 3.333 0.5 0.5 0.5 1.0 0.1 0.1 0.1 1.0 0.0 0.0 0.0
